<?xml version="1.0" standalone="no"?>
<!DOCTYPE svg PUBLIC "-//W3C//DTD SVG 20010904//EN"
 "http://www.w3.org/TR/2001/REC-SVG-20010904/DTD/svg10.dtd">
<svg version="1.0" xmlns="http://www.w3.org/2000/svg"
 width="990.000000pt" height="990.000000pt" viewBox="0 0 990.000000 990.000000"
 preserveAspectRatio="xMidYMid meet">
<metadata>
Created by potrace 1.14, written by Peter Selinger 2001-2017
</metadata>
<g transform="translate(0.000000,990.000000) scale(0.100000,-0.100000)"
fill="#000000" stroke="none">
<path d="M3072 9794 c-68 -14 -108 -32 -244 -110 -47 -28 -137 -67 -198 -88
-188 -62 -271 -130 -363 -298 -21 -37 -60 -93 -87 -125 -60 -68 -123 -192
-146 -283 -12 -45 -18 -115 -19 -225 -2 -148 -4 -165 -29 -230 -35 -88 -40
-182 -16 -280 l17 -70 0 105 c0 93 3 113 27 170 49 114 57 141 52 179 -40 302
-12 408 159 588 37 39 82 102 107 148 50 94 133 182 207 220 29 14 92 40 139
57 48 16 116 46 152 66 36 19 92 50 125 68 85 47 199 67 275 51 8 -2 32 -7 53
-12 38 -7 61 -25 32 -25 -25 0 -95 -39 -122 -68 -14 -15 -38 -52 -53 -82 -15
-30 -46 -78 -69 -105 -48 -58 -55 -107 -20 -146 l20 -24 -5 35 c-7 40 1 53 56
93 46 34 57 53 77 136 13 52 23 70 52 93 81 65 161 48 264 -57 73 -75 91 -84
224 -115 56 -13 111 -40 146 -73 68 -62 114 -80 265 -101 14 -1 52 3 85 11 33
8 68 16 79 18 12 3 33 -11 60 -38 25 -27 64 -52 101 -66 70 -28 101 -53 110
-88 7 -30 18 -41 66 -71 38 -23 78 -75 98 -127 18 -48 51 -204 60 -280 4 -39
13 -80 19 -92 7 -12 12 -37 12 -57 0 -41 18 -56 36 -32 13 18 11 51 -5 96 -5
14 -11 54 -14 90 -3 39 -15 90 -31 127 -19 45 -24 68 -17 85 20 54 -24 147
-96 204 -46 35 -81 72 -106 108 -18 26 -54 46 -147 82 -27 10 -57 32 -75 55
-16 20 -40 40 -52 43 -17 5 -26 18 -34 50 -25 101 -121 151 -264 139 -186 -16
-177 -18 -413 101 -117 59 -234 115 -261 125 -89 36 -194 44 -289 25z"/>
<path d="M3012 9665 c-19 -16 -37 -46 -48 -81 -13 -42 -26 -61 -55 -82 -63
-45 -83 -96 -58 -145 14 -26 28 -37 51 -37 14 0 15 5 7 35 -11 39 -2 63 34 92
36 28 58 67 56 99 -4 61 2 83 27 113 31 38 26 40 -14 6z"/>
<path d="M3332 9595 c-25 -11 -34 -24 -46 -64 -8 -28 -26 -70 -40 -94 -44 -75
-34 -103 51 -146 53 -26 77 -26 119 0 31 19 35 19 63 5 43 -23 45 -32 10 -49
-25 -12 -36 -12 -57 -2 -15 6 -54 11 -87 11 -54 -1 -60 -3 -63 -23 -5 -31 11
-56 63 -98 57 -47 105 -59 159 -38 23 8 57 21 76 28 28 11 42 10 78 0 24 -8
46 -16 48 -18 3 -2 0 -23 -5 -46 -7 -33 -6 -45 6 -56 8 -8 17 -15 20 -15 3 0
23 20 45 45 26 29 48 45 63 45 l24 0 -20 -45 c-29 -65 -15 -114 33 -115 13 0
21 13 29 45 7 27 20 50 31 56 23 13 35 5 20 -13 -27 -34 -13 -119 24 -143 31
-20 54 -6 54 32 0 52 43 93 79 74 14 -8 19 -21 18 -46 -2 -58 40 -72 74 -25
19 26 27 54 28 103 1 34 25 36 82 6 l41 -20 20 21 c17 18 27 20 62 15 22 -4
55 -16 72 -26 31 -19 64 -72 64 -101 -1 -7 -11 7 -23 32 -28 56 -80 87 -112
66 -26 -17 -28 -69 -2 -74 10 -2 17 3 17 13 0 28 24 11 45 -32 29 -59 44 -73
76 -73 34 0 49 23 49 75 0 52 -22 97 -65 133 -48 39 -100 51 -246 56 -131 5
-199 19 -381 77 -69 22 -136 42 -148 44 -58 11 -62 15 -55 52 9 50 -29 96
-113 136 -49 23 -76 44 -100 77 -86 119 -120 140 -180 115z"/>
<path d="M2920 9230 c0 -43 -25 -83 -65 -105 -38 -20 -65 -69 -47 -87 8 -8 15
-8 24 -1 7 6 30 13 51 16 21 3 47 13 57 22 37 34 34 143 -6 175 -12 11 -14 7
-14 -20z"/>
<path d="M3211 9143 c44 -109 66 -138 126 -165 85 -38 179 -13 253 68 l25 27
-32 -17 c-25 -12 -56 -15 -150 -12 -65 1 -130 8 -145 14 -20 8 -37 33 -68 97
-22 47 -42 85 -45 85 -2 0 14 -44 36 -97z"/>
<path d="M2357 9163 c-2 -5 -5 -38 -6 -75 -3 -75 20 -140 63 -183 14 -14 27
-31 27 -38 1 -7 3 -21 4 -32 1 -11 3 -29 4 -40 0 -11 10 -35 22 -54 28 -46 39
-28 39 63 l0 69 -59 57 c-64 61 -79 96 -83 189 -3 52 -4 56 -11 44z"/>
<path d="M3022 9079 c1 -154 51 -232 148 -234 38 0 45 3 48 20 2 16 -10 26
-55 47 -74 34 -100 69 -123 171 l-19 82 1 -86z"/>
<path d="M2765 8932 c-22 -42 -36 -53 -97 -83 -79 -38 -102 -68 -112 -148 -3
-25 -10 -49 -15 -54 -5 -5 -40 -15 -78 -23 -99 -20 -119 -47 -113 -152 1 -24
-7 -42 -30 -69 -31 -35 -32 -38 -27 -112 4 -58 0 -90 -15 -141 -20 -64 -20
-101 -1 -190 10 -44 10 -202 0 -252 -23 -123 -25 -195 -8 -283 19 -98 33 -92
25 10 -5 81 -3 102 26 215 40 154 43 254 11 345 -26 73 -26 106 -3 176 17 48
17 61 7 114 -11 52 -11 62 3 78 8 9 24 17 34 17 10 0 30 11 43 24 21 21 23 31
20 84 -5 68 4 81 68 102 48 15 73 41 102 106 17 38 38 63 76 92 81 59 91 75
112 170 8 33 1 27 -28 -26z"/>
<path d="M2265 8936 c3 -16 19 -48 34 -70 24 -34 28 -51 28 -100 -1 -52 2 -61
26 -82 16 -13 33 -24 38 -24 18 0 22 31 6 48 -9 10 -19 33 -22 52 -10 60 -16
74 -50 110 -18 19 -40 49 -49 65 l-17 30 6 -29z"/>
<path d="M2870 8935 c-11 -14 -10 -17 8 -22 15 -3 25 -18 32 -42 16 -60 182
-292 198 -277 2 3 -13 34 -35 68 -83 132 -80 127 -45 88 17 -19 48 -56 69 -81
21 -26 57 -59 81 -74 37 -23 50 -27 95 -22 29 3 87 17 131 32 80 27 177 35
242 21 l31 -7 -34 -34 c-31 -31 -35 -40 -32 -78 4 -40 2 -43 -18 -39 -42 8
-62 58 -43 108 14 35 -6 30 -25 -6 -8 -16 -15 -40 -15 -55 0 -20 -5 -25 -24
-25 -25 0 -36 16 -36 53 0 28 -17 10 -22 -23 -4 -29 -24 -38 -89 -39 -59 -1
-104 14 -151 50 -46 36 -55 37 -33 2 48 -74 114 -108 192 -99 241 30 260 24
451 -157 45 -43 88 -77 94 -75 26 9 18 31 -27 72 -42 38 -46 45 -36 64 16 29
24 28 19 -3 -4 -16 1 -30 14 -42 19 -17 21 -17 38 5 18 21 19 22 29 5 5 -10 7
-31 4 -46 -6 -31 10 -37 27 -9 8 13 10 8 7 -25 -3 -24 -3 -43 0 -43 2 0 15 12
28 28 l24 27 -4 -35 c-2 -19 -4 -39 -4 -43 -1 -5 -10 -5 -21 -2 -11 3 -20 4
-20 1 0 -5 104 -66 114 -66 15 0 4 29 -16 42 l-23 15 20 37 c24 46 35 54 30
24 -9 -58 -9 -71 1 -75 5 -2 18 14 27 34 9 21 26 49 38 63 l21 25 -6 -30 c-15
-80 -18 -123 -8 -129 25 -15 46 82 35 157 -4 27 -10 37 -20 33 -15 -6 -20 3
-27 53 -3 18 -9 38 -15 44 -18 18 -13 22 26 21 40 -1 49 -10 32 -34 -8 -11
-12 -12 -16 -2 -8 21 -21 4 -15 -23 7 -38 35 -30 66 19 39 62 99 88 90 40 -7
-36 -32 -84 -45 -84 -6 0 -8 4 -5 8 3 5 2 22 -2 37 l-8 29 -27 -48 c-27 -49
-34 -90 -18 -115 6 -10 13 -6 27 18 10 17 24 31 30 31 6 0 17 7 24 15 12 15
35 11 25 -5 -7 -11 5 -40 16 -40 5 0 18 9 30 21 17 17 20 31 18 95 -1 41 0 76
3 79 2 3 21 7 42 10 l38 4 -7 -46 c-7 -51 -24 -95 -34 -88 -4 2 -8 21 -9 42
-5 65 -20 58 -17 -7 3 -66 12 -84 37 -75 21 8 66 99 73 146 5 31 10 38 36 43
55 11 56 10 49 -39 -10 -65 -25 -76 -41 -31 -16 43 -26 46 -35 9 -11 -47 -41
-107 -63 -127 -21 -19 -27 -46 -14 -60 4 -3 22 8 40 26 18 17 33 27 33 20 0
-20 22 -13 53 16 l29 27 -4 -25 c-2 -20 1 -24 17 -22 25 4 85 69 85 93 0 10 9
23 19 29 11 5 26 29 34 52 15 43 15 43 16 11 1 -42 -19 -85 -36 -79 -8 3 -13
-2 -13 -14 0 -23 17 -25 42 -6 28 21 68 117 58 137 -26 48 -68 29 -93 -40 -10
-29 -22 -49 -27 -46 -5 3 -2 26 7 51 11 33 12 49 5 56 -8 8 -13 6 -18 -8 -4
-10 -14 -35 -22 -54 l-15 -35 -7 39 c-9 49 -30 65 -81 62 -36 -3 -39 -1 -50
33 -12 36 -55 111 -64 111 -3 0 6 -30 20 -66 30 -80 30 -84 5 -84 -11 0 -20 6
-20 13 0 8 -9 22 -20 32 -21 19 -21 19 -14 -22 l6 -41 -53 -18 c-85 -28 -236
-24 -334 8 l-40 13 3 55 c1 30 5 71 8 90 7 54 -11 23 -31 -53 -9 -37 -21 -70
-26 -73 -5 -2 -31 5 -59 17 -47 20 -52 20 -69 5 -25 -23 -31 -20 -31 13 0 35
-13 46 -30 26 -14 -16 -30 -11 -30 9 0 8 9 16 21 19 34 9 18 40 -33 65 -69 35
-124 31 -253 -17 -128 -47 -206 -51 -266 -14 -43 27 -227 223 -255 272 -23 40
-62 52 -84 26z m1104 -486 c36 -17 85 -33 108 -36 33 -5 38 -8 26 -17 -8 -6
-22 -26 -32 -43 -9 -18 -21 -33 -27 -33 -6 0 -8 4 -5 9 3 5 1 23 -5 40 -16 44
-40 36 -60 -19 -20 -51 -25 -43 -33 45 -3 33 -5 61 -6 63 0 1 -9 -2 -19 -8
-21 -11 -37 2 -26 20 8 13 3 14 79 -21z"/>
<path d="M2775 8842 c-54 -49 -63 -82 -70 -255 -3 -67 -7 -145 -10 -173 -15
-156 -6 -214 42 -280 13 -17 23 -43 23 -57 0 -41 17 -74 63 -125 74 -82 72
-76 43 -126 -30 -51 -35 -113 -10 -123 8 -3 49 11 91 31 162 80 286 89 448 36
122 -40 145 -42 215 -18 85 30 163 26 341 -21 156 -41 199 -48 199 -32 0 4
-33 22 -72 39 -40 17 -113 49 -163 70 -108 47 -167 68 -217 76 -21 3 -55 10
-75 14 -41 9 -56 8 -234 -3 -84 -6 -126 -4 -155 5 -59 19 -392 209 -426 243
-46 47 -51 69 -38 182 8 65 9 142 4 220 -13 196 -11 211 44 318 8 16 -15 5
-43 -21z"/>
<path d="M3971 8686 c-14 -16 -22 -84 -12 -91 5 -2 12 20 18 50 5 30 9 55 8
55 -2 0 -8 -6 -14 -14z"/>
<path d="M2540 8429 c0 -14 9 -61 21 -105 20 -76 22 -144 5 -214 -19 -79 -3
-161 44 -232 34 -52 110 -118 134 -118 24 0 32 31 12 42 -10 6 -36 48 -58 95
-40 85 -42 94 -52 268 -3 59 -12 88 -54 180 -34 72 -52 101 -52 84z"/>
<path d="M4254 8235 c-23 -36 -43 -97 -36 -114 4 -11 7 -9 13 6 15 41 26 32
18 -15 -8 -55 5 -78 27 -47 41 62 44 63 32 17 -18 -73 15 -77 59 -6 10 17 12
14 13 -21 1 -53 12 -70 37 -57 10 6 25 22 33 36 19 36 30 32 30 -8 0 -47 16
-53 39 -15 l19 32 4 -29 c2 -16 7 -27 12 -26 5 2 13 -2 18 -10 7 -10 11 -10
22 5 12 16 14 16 20 1 9 -24 7 -34 -6 -29 -7 2 -49 6 -93 9 -115 9 -139 14
-249 50 -107 36 -103 25 9 -29 75 -36 192 -71 253 -74 9 -1 4 -16 -14 -46 -14
-25 -24 -48 -22 -51 7 -6 78 73 78 86 0 6 5 10 10 10 6 0 27 7 48 16 32 13 35
17 19 25 -16 9 -16 11 -1 26 21 21 11 90 -16 118 -20 19 -20 19 -21 -35 -1
-51 -2 -53 -10 -23 -11 39 -29 52 -29 22 0 -28 -7 -22 -13 11 -12 62 -30 120
-38 120 -4 0 -14 -10 -20 -22 -12 -23 -13 -23 -26 10 -15 36 -16 36 -44 22
-15 -8 -19 -7 -19 5 0 24 -30 18 -57 -12 l-25 -26 -20 46 c-11 26 -24 47 -29
47 -5 0 -16 -11 -25 -25z"/>
<path d="M2000 8003 c0 -17 7 -66 15 -109 40 -214 49 -411 25 -531 -7 -32 -27
-99 -46 -149 -71 -192 -75 -239 -32 -411 22 -91 40 -124 57 -107 8 7 8 26 2
60 -6 27 -9 105 -8 174 2 118 5 133 51 280 45 143 48 163 49 260 0 63 -7 137
-17 185 -10 44 -19 87 -21 95 -2 8 -15 60 -29 115 -15 55 -29 114 -32 130 -8
41 -14 45 -14 8z"/>
<path d="M4664 7967 c9 -38 -40 -124 -113 -197 -95 -95 -156 -119 -263 -100
-42 8 -66 -1 -46 -17 24 -19 118 -41 155 -36 44 6 108 36 142 67 20 18 108
143 148 210 16 26 16 51 3 77 -15 27 -33 24 -26 -4z"/>
<path d="M4441 7862 c-12 -18 -18 -32 -13 -32 15 0 44 38 40 51 -2 7 -14 -1
-27 -19z"/>
<path d="M2495 7819 c14 -112 22 -134 65 -176 37 -36 84 -51 105 -33 21 17 9
35 -40 60 -58 30 -68 42 -105 125 l-31 70 6 -46z"/>
<path d="M3136 7693 c-16 -30 -74 -88 -147 -146 -53 -42 -79 -89 -79 -144 0
-63 34 -85 45 -30 11 50 33 85 96 159 63 73 73 89 94 149 16 45 12 51 -9 12z"/>
<path d="M3761 7683 c47 -62 98 -122 124 -146 40 -38 164 -122 195 -132 14 -5
90 -9 170 -10 122 -2 154 -6 201 -24 85 -33 198 -116 273 -201 29 -33 29 -33
4 -27 -60 15 -134 18 -163 6 -26 -10 -27 -13 -10 -16 93 -17 252 -89 285 -128
16 -19 11 -19 -31 2 -18 9 -67 18 -109 21 -63 4 -85 1 -125 -17 -59 -26 -56
-33 7 -19 57 13 161 -6 250 -47 l57 -26 30 -92 c16 -51 37 -119 46 -152 29
-103 84 -195 118 -195 10 0 47 -21 80 -47 266 -204 350 -259 513 -341 331
-165 705 -279 1400 -427 284 -60 408 -101 589 -192 101 -51 200 -113 264 -167
61 -51 64 -45 5 10 -105 98 -253 197 -388 259 -96 45 -251 102 -326 120 -30 7
-143 36 -250 63 -107 28 -294 76 -415 107 -377 97 -576 166 -810 280 -172 84
-301 163 -471 291 -65 50 -135 101 -154 114 -19 13 -38 29 -42 35 -9 11 -41
113 -62 195 -33 129 -89 238 -175 340 -174 206 -360 306 -607 325 -49 4 -111
16 -137 26 -55 22 -159 91 -262 173 -69 56 -99 71 -74 39z"/>
<path d="M2739 7494 c-172 -205 -190 -239 -184 -350 7 -131 52 -261 80 -232 9
9 9 65 0 153 -19 189 -16 202 80 350 74 113 99 155 92 155 -2 0 -33 -34 -68
-76z"/>
<path d="M3740 7276 c0 -9 10 -15 28 -15 15 0 37 -2 50 -5 34 -7 26 10 -9 23
-44 15 -69 14 -69 -3z"/>
<path d="M3865 7120 c-3 -5 0 -10 8 -10 7 0 40 -8 73 -19 85 -27 121 -34 109
-22 -10 10 -155 61 -174 61 -5 0 -13 -4 -16 -10z"/>
<path d="M4259 7093 c-40 -102 -58 -328 -29 -357 21 -21 28 16 29 153 0 75 4
157 9 184 11 53 7 61 -9 20z"/>
<path d="M2910 6925 c-2 -86 -4 -100 -35 -201 -14 -45 -25 -99 -25 -119 0
-131 201 -326 337 -329 23 0 43 -2 43 -5 0 -3 -9 -15 -21 -27 -26 -28 -47 -88
-43 -123 1 -14 6 -49 10 -78 6 -50 6 -51 -25 -68 -74 -38 -67 -167 13 -262 23
-27 35 -33 66 -33 21 0 41 3 43 8 3 4 0 30 -6 59 -9 43 -8 55 6 77 25 37 22
60 -5 52 -13 -3 -26 -6 -29 -6 -9 0 -29 -49 -29 -72 0 -11 9 -36 21 -54 17
-28 18 -34 5 -34 -8 0 -26 15 -39 33 -52 69 -60 160 -17 195 19 15 23 33 30
124 10 128 24 160 82 182 64 26 94 52 138 117 22 32 66 85 96 116 60 61 86
107 76 132 -9 24 -43 51 -66 52 -107 7 -174 -19 -225 -88 l-33 -45 -60 6 c-34
4 -58 3 -54 -2 8 -13 76 -40 119 -47 68 -11 42 -32 -52 -41 -93 -10 -133 7
-187 79 -69 91 -72 91 -23 -3 38 -73 51 -87 90 -107 25 -13 74 -27 110 -32 63
-8 64 -8 34 -20 -42 -18 -143 -16 -188 3 -40 18 -91 80 -130 161 -35 70 -37
86 -20 152 16 64 18 216 4 278 -8 38 -9 36 -11 -30z"/>
<path d="M4006 6971 c20 -18 126 -72 132 -67 7 8 -21 30 -70 56 -38 20 -80 28
-62 11z"/>
<path d="M3785 6960 c-7 -12 5 -17 62 -23 52 -6 65 7 21 22 -39 14 -75 14 -83
1z"/>
<path d="M4321 6914 c-12 -48 -16 -98 -26 -354 -3 -86 -8 -165 -10 -175 -2
-11 -4 -33 -5 -50 -1 -43 -13 -18 -43 92 l-25 91 25 7 c27 7 21 21 -11 27 -14
2 -21 13 -24 36 -2 19 -7 44 -12 55 -7 17 -9 7 -9 -36 -1 -42 -5 -59 -16 -63
-21 -8 -19 -21 5 -29 11 -4 20 -15 20 -26 0 -11 14 -75 31 -141 34 -138 32
-181 -7 -103 -58 119 -78 193 -89 330 -15 180 -34 295 -52 320 l-15 20 7 -20
c17 -44 26 -139 30 -311 5 -202 9 -219 80 -372 37 -78 43 -97 34 -119 -5 -14
-11 -24 -13 -22 -18 19 -96 176 -92 185 3 7 -3 14 -13 17 -13 3 -23 22 -31 57
-12 49 -11 54 6 67 18 13 18 15 2 24 -15 8 -18 24 -18 94 0 74 2 86 20 95 24
13 16 34 -10 27 -14 -4 -19 3 -24 32 -10 62 -7 91 9 91 8 0 15 7 15 15 0 8 -8
15 -19 15 -12 0 -27 18 -45 58 -15 31 -25 46 -21 32 3 -14 10 -39 15 -57 l8
-32 -52 -3 c-46 -3 -49 -4 -29 -15 20 -12 51 -20 79 -22 6 -1 12 -26 13 -60
l2 -58 -37 1 c-53 1 -56 -22 -5 -30 l41 -7 0 -88 c0 -49 -3 -89 -7 -90 -10 -1
-62 -6 -87 -8 -34 -2 -1 -24 46 -30 l43 -6 16 -62 17 -62 -34 -7 c-19 -3 -34
-10 -34 -15 0 -5 3 -8 8 -8 38 6 83 -3 88 -18 16 -50 59 -144 86 -188 17 -27
33 -63 35 -79 7 -42 34 -109 92 -223 27 -54 48 -99 47 -101 -7 -7 -75 29 -98
52 -14 14 -38 61 -53 104 -27 72 -36 84 -136 183 -59 59 -121 128 -138 155
-34 55 -39 54 -15 -2 19 -45 83 -144 148 -227 31 -39 52 -81 67 -129 11 -40
28 -82 36 -95 25 -37 153 -123 195 -129 21 -4 41 -12 46 -18 11 -14 36 -149
31 -164 -2 -6 -31 14 -63 44 -67 62 -91 77 -156 94 -100 27 -172 94 -185 172
-19 109 -54 159 -180 252 -66 49 -136 117 -181 177 -21 27 -40 47 -42 44 -7
-6 56 -115 93 -160 18 -22 66 -74 107 -115 85 -85 101 -111 118 -195 7 -33 18
-72 25 -86 33 -63 135 -133 212 -145 109 -16 110 -16 173 -74 19 -18 50 -43
68 -57 46 -36 42 -50 -15 -50 -100 0 -192 -16 -288 -48 -98 -33 -168 -53 -212
-61 -13 -2 -35 -7 -50 -10 -61 -13 -156 -16 -199 -5 -67 17 -94 41 -178 161
-116 163 -137 183 -293 287 -120 79 -168 105 -274 144 -71 27 -148 61 -172 77
-89 62 -254 255 -327 385 -18 32 -34 56 -36 54 -8 -7 36 -118 72 -185 51 -93
103 -161 189 -247 l72 -73 -3 -60 c-4 -65 -9 -82 -86 -297 -90 -251 -71 -312
164 -506 131 -108 204 -170 281 -242 53 -49 91 -65 113 -46 21 17 18 30 -26
125 -70 151 -80 215 -45 289 26 53 75 88 188 135 56 23 113 50 128 61 l27 19
64 -63 c119 -119 216 -123 513 -22 152 51 176 56 313 60 107 4 132 -5 132 -43
0 -29 56 -135 93 -177 40 -47 97 -81 120 -72 13 5 8 25 -29 133 -53 151 -54
149 68 190 60 20 93 38 136 76 66 58 111 81 165 83 51 2 57 12 12 21 -56 10
-101 -2 -175 -46 -37 -22 -93 -50 -126 -61 -32 -11 -72 -26 -89 -34 -16 -8
-30 -13 -31 -12 -1 1 -4 14 -8 29 -5 23 -2 30 24 43 17 9 52 18 78 20 41 3 53
10 90 50 53 55 78 73 134 91 l43 14 -48 -5 c-31 -3 -71 -18 -110 -41 -41 -25
-76 -38 -105 -39 -26 -2 -57 -12 -82 -29 l-40 -26 -1 22 c-1 13 -3 37 -4 53
-2 17 -6 73 -9 125 -4 52 -12 127 -18 165 -10 66 -48 185 -67 209 -19 25 -61
199 -77 316 -2 19 -6 42 -9 50 -2 8 -7 44 -10 80 -6 64 -5 66 35 128 72 112
165 176 273 189 36 4 45 8 32 13 -75 27 -255 -49 -320 -134 -15 -20 -30 -34
-34 -31 -34 20 72 174 159 231 46 31 50 37 15 24 -53 -20 -90 -44 -137 -87
-26 -25 -48 -42 -49 -37 -1 5 -3 74 -5 153 -2 80 -6 146 -8 148 -2 2 -9 -17
-15 -43z"/>
<path d="M3296 6898 c-53 -7 -96 -29 -96 -48 0 -4 21 -3 48 2 73 15 149 10
198 -11 51 -23 54 -33 18 -50 -30 -13 -25 -24 14 -29 54 -6 103 -23 120 -41 9
-10 32 -34 50 -54 18 -20 57 -47 87 -61 79 -38 81 -57 13 -128 -10 -10 -18
-28 -18 -39 0 -29 -37 -92 -63 -109 -12 -7 -47 -27 -77 -43 -55 -30 -93 -57
-87 -63 5 -6 139 44 182 67 76 41 89 60 100 147 2 18 15 46 29 63 14 17 27 38
27 47 4 60 -15 85 -86 118 -27 12 -70 41 -94 63 -25 22 -59 45 -77 51 -23 8
-35 21 -46 49 -9 22 -28 47 -43 57 -30 19 -106 24 -199 12z"/>
<path d="M2040 6523 c-19 -141 -19 -140 26 -149 49 -9 86 -65 88 -133 1 -40 7
-56 29 -78 15 -16 27 -40 27 -54 0 -27 33 -69 54 -69 24 0 50 -40 50 -78 1
-20 4 -42 8 -48 4 -6 12 -24 18 -40 10 -28 10 -29 -7 -9 -10 11 -34 31 -53 44
-46 32 -60 50 -60 78 0 35 -35 97 -63 112 -65 35 -84 -21 -47 -140 l21 -69
-31 -64 c-17 -35 -32 -80 -33 -99 -3 -46 -11 -36 -26 33 -6 30 -21 64 -32 76
-19 20 -20 27 -10 74 6 28 11 77 11 108 0 36 6 66 16 80 29 41 25 58 -27 112
-27 28 -50 55 -50 61 -5 36 -3 58 7 84 10 26 10 69 1 155 -2 14 0 40 4 58 4
17 5 32 3 32 -12 0 -25 -49 -30 -112 -3 -40 -10 -89 -15 -108 -8 -33 -6 -69 8
-115 3 -11 21 -42 40 -68 19 -27 35 -56 35 -65 1 -27 -23 -142 -43 -205 -24
-72 -24 -73 6 -103 14 -14 27 -40 29 -60 7 -52 38 -99 66 -99 17 0 24 6 26 25
9 68 16 88 44 130 36 54 37 67 6 156 -13 38 -22 72 -20 76 11 18 44 -15 54
-55 16 -64 27 -80 74 -110 26 -16 49 -41 57 -60 23 -57 52 -63 69 -13 11 35 9
62 -9 109 -6 16 -11 43 -11 60 0 42 -24 76 -66 93 -19 8 -34 18 -35 22 -4 37
-13 61 -35 83 -19 20 -25 36 -23 65 3 60 1 66 -36 108 -19 21 -35 41 -35 45 0
3 10 19 23 35 22 27 25 28 59 17 21 -7 40 -22 49 -39 27 -54 61 -101 77 -107
64 -27 118 -22 93 8 -6 8 -23 18 -37 21 -45 12 -75 38 -106 94 -32 56 -70 86
-121 98 -16 3 -46 24 -67 45 l-38 39 -12 -87z"/>
<path d="M5090 6319 c0 -9 9 -61 20 -115 11 -55 23 -112 26 -129 15 -77 5
-214 -25 -342 -17 -72 -31 -153 -31 -180 0 -107 52 -215 161 -338 137 -153
198 -281 214 -445 3 -25 7 -56 9 -70 3 -14 8 -45 11 -70 3 -25 8 -53 11 -62 3
-9 6 -25 9 -35 7 -39 36 -114 60 -155 31 -53 32 -41 3 37 -20 53 -22 81 -24
250 -2 257 -11 308 -69 412 -13 24 -20 43 -16 43 5 0 73 -13 152 -29 79 -17
158 -32 174 -35 110 -21 212 -38 262 -44 74 -9 374 -8 478 2 119 11 151 14
255 21 52 3 103 9 113 11 27 8 20 33 -15 52 -18 9 -55 39 -84 65 -28 26 -67
52 -85 57 -34 10 -38 10 -177 -16 -46 -9 -86 -13 -90 -10 -3 4 -5 29 -3 56 2
46 -1 54 -32 85 -55 55 -102 45 -223 -47 -50 -38 -137 -78 -169 -78 -23 0 -18
24 26 118 79 166 90 195 94 238 4 49 -9 51 -19 3 -7 -39 -84 -155 -136 -208
-22 -22 -61 -55 -87 -73 -43 -29 -56 -33 -115 -33 -85 0 -98 11 -74 62 10 21
40 73 67 116 81 126 108 207 114 338 5 94 -3 86 -21 -20 -23 -136 -81 -231
-190 -308 -131 -94 -223 -119 -246 -68 -15 33 -6 51 76 149 36 43 77 102 90
130 32 67 49 167 42 238 -6 52 -20 108 -28 108 -2 0 -1 -23 0 -50 5 -68 -22
-184 -57 -246 -16 -27 -55 -75 -86 -106 -51 -50 -64 -57 -121 -68 -35 -7 -71
-10 -79 -6 -16 6 -43 60 -51 100 -6 30 -6 68 0 206 4 89 1 142 -9 185 -18 77
-104 325 -105 304z"/>
<path d="M3436 6234 c-3 -9 -6 -24 -6 -35 0 -11 -9 -27 -21 -37 -56 -46 -43
-98 33 -139 57 -30 57 -32 45 -118 -6 -40 17 -84 60 -117 l36 -28 -32 0 c-41
0 -86 26 -100 57 -6 12 -14 23 -18 24 -67 7 -67 7 -65 62 2 34 -4 51 -32 90
-19 27 -38 62 -41 78 -4 16 -10 29 -15 29 -13 0 0 -61 23 -110 13 -27 21 -66
22 -97 0 -57 19 -87 63 -98 14 -3 32 -15 40 -26 42 -60 174 -72 202 -19 11 21
-4 41 -51 65 -16 9 -35 28 -42 43 -14 29 -14 29 -3 84 11 50 -9 86 -63 118
-54 31 -58 39 -30 71 29 33 38 60 32 92 -6 30 -27 36 -37 11z"/>
<path d="M4641 5632 c-39 -13 -57 -42 -26 -42 19 0 156 38 163 45 3 3 -6 6
-19 6 -13 1 -36 2 -50 3 -15 1 -45 -4 -68 -12z"/>
<path d="M4758 5525 c-140 -38 -208 -92 -113 -89 31 1 49 10 79 38 22 20 45
36 50 36 6 0 20 7 30 15 23 18 17 18 -46 0z"/>
<path d="M2497 5222 c-14 -37 -17 -154 -6 -197 27 -103 63 -148 174 -223 78
-52 96 -72 195 -220 93 -138 96 -140 307 -281 177 -119 223 -164 223 -219 0
-57 13 -69 39 -36 11 14 21 31 21 35 0 5 11 9 25 9 34 0 87 28 79 41 -3 6 -21
8 -40 6 -46 -6 -43 6 7 28 35 16 85 62 76 71 -1 2 -25 -8 -52 -21 -89 -42 -96
-41 -164 19 l-60 55 27 23 c72 61 83 115 12 59 -67 -53 -82 -57 -129 -30 l-40
22 43 27 c51 33 106 97 106 125 0 16 -4 14 -20 -12 -24 -39 -51 -58 -124 -84
-54 -19 -59 -19 -94 -2 -93 42 -231 181 -282 283 -35 69 -66 105 -139 161
-125 96 -161 159 -170 294 -5 63 -9 83 -14 67z"/>
<path d="M4862 5164 c-24 -7 -78 -14 -119 -15 -55 -1 -76 -6 -80 -16 -19 -50
163 -32 224 22 16 13 26 24 23 24 -3 -1 -25 -7 -48 -15z"/>
<path d="M4963 5121 c-52 -42 -114 -73 -173 -86 l-35 -8 32 -7 c99 -22 248 43
255 111 5 37 -24 34 -79 -10z"/>
<path d="M7307 5124 c-1 -1 -24 -4 -52 -8 -75 -9 -106 -16 -129 -28 -20 -11
-20 -11 -1 -19 11 -4 79 -8 150 -8 206 -2 292 -9 440 -35 144 -26 321 -138
361 -230 10 -24 13 -26 14 -10 0 31 -51 105 -111 157 -101 89 -244 147 -429
173 -40 6 -238 12 -243 8z"/>
<path d="M8100 5127 c0 -4 18 -43 40 -86 79 -158 87 -288 26 -413 -20 -40 -58
-98 -86 -128 -107 -117 -141 -237 -101 -355 12 -36 20 -71 18 -78 -8 -23 -94
79 -116 138 -27 73 -22 118 29 265 63 176 67 235 25 336 -37 89 -133 184 -186
184 l-24 -1 25 -20 c164 -131 194 -232 130 -444 -44 -146 -50 -188 -35 -244
21 -76 66 -181 92 -212 28 -32 45 -36 66 -14 13 13 13 20 0 57 -22 63 -13 163
22 234 15 31 55 86 89 121 114 121 147 198 141 328 -4 95 -53 221 -107 276 -8
8 -22 25 -31 39 -9 13 -17 21 -17 17z"/>
<path d="M3416 5078 c45 -54 57 -91 69 -213 10 -108 16 -138 36 -176 34 -68
122 -152 219 -208 50 -30 98 -65 107 -77 17 -27 23 -105 12 -149 -9 -35 -13
-56 -36 -186 -14 -81 -15 -100 -4 -128 9 -20 20 -31 29 -29 13 2 21 37 39 158
27 186 28 270 7 334 -14 40 -27 54 -88 97 -209 145 -256 210 -280 384 -12 90
-55 179 -100 209 -38 24 -41 20 -10 -16z"/>
<path d="M5174 5089 c-5 -8 -20 -39 -35 -69 -20 -42 -39 -64 -81 -93 -31 -21
-70 -42 -88 -47 -32 -9 -164 -5 -181 6 -5 3 -9 3 -9 0 0 -3 13 -12 28 -20 36
-19 106 -25 154 -14 59 13 165 67 187 94 29 37 54 120 43 140 -8 14 -11 14
-18 3z"/>
<path d="M6969 5090 c-7 -5 -11 -11 -9 -13 10 -10 59 -12 60 -2 2 14 -35 24
-51 15z"/>
<path d="M4697 4824 c-25 -25 22 -183 101 -339 64 -125 144 -214 227 -253 28
-13 65 -31 84 -40 31 -16 94 -88 121 -140 6 -13 22 -59 34 -102 l23 -79 -28
-86 c-28 -87 -29 -129 -5 -153 10 -10 11 -24 4 -54 -17 -76 11 -138 45 -100
15 17 47 76 47 87 0 14 -31 2 -46 -17 -12 -18 -15 -18 -10 -5 16 49 18 72 6
106 -10 33 -9 47 15 125 45 148 35 281 -33 410 -38 73 -44 80 -353 383 -74 72
-145 150 -159 173 -36 60 -64 93 -73 84z"/>
<path d="M5161 4796 c-14 -17 -64 -35 -101 -37 -25 -1 -111 7 -162 16 -22 4
-28 1 -28 -13 0 -41 128 -64 208 -38 45 15 112 69 100 81 -3 3 -11 -1 -17 -9z"/>
<path d="M5174 4610 c-7 -7 -33 -13 -59 -15 -57 -3 -79 -20 -51 -41 11 -8 32
-14 47 -14 34 0 83 40 78 64 -3 13 -7 14 -15 6z"/>
<path d="M5188 4448 c-31 -11 -36 -25 -13 -34 27 -11 65 5 65 26 0 22 -11 24
-52 8z"/>
<path d="M5674 4193 c47 -71 58 -135 41 -246 -7 -39 -3 -57 19 -105 14 -33 28
-76 31 -98 3 -24 13 -47 29 -60 32 -29 43 -50 54 -114 10 -54 10 -55 -21 -82
-18 -14 -29 -30 -24 -34 4 -4 13 -2 19 4 18 18 36 15 74 -15 36 -30 43 -43 20
-43 -22 0 -66 -51 -66 -76 0 -22 1 -22 30 7 39 40 80 37 91 -5 5 -16 13 -32
19 -36 8 -5 1 -19 -19 -40 -34 -38 -47 -81 -32 -107 10 -17 10 -16 11 3 0 44
70 104 120 104 12 0 30 -5 41 -11 19 -10 19 -12 -15 -49 -36 -41 -50 -74 -44
-107 2 -13 9 -8 24 21 26 51 60 76 112 83 38 5 42 3 54 -22 11 -24 10 -29 -2
-33 -8 -3 -27 -18 -42 -33 -34 -33 -36 -71 -7 -118 25 -42 16 -51 -54 -51 -43
0 -52 4 -87 40 -31 31 -47 40 -74 40 -41 0 -56 -16 -25 -25 12 -4 39 -24 61
-45 49 -49 95 -64 173 -57 80 8 115 24 115 52 0 26 -15 41 -52 50 -17 4 -28
15 -30 28 -6 33 19 76 48 83 34 9 58 -16 85 -86 20 -52 20 -54 2 -37 -24 21
-43 22 -43 3 0 -17 56 -66 76 -66 8 0 15 9 15 20 1 11 2 26 2 33 2 36 -19 82
-58 125 -24 27 -52 68 -61 91 -13 32 -26 47 -51 57 -19 8 -38 12 -44 9 -5 -4
-25 7 -44 24 -19 16 -53 35 -75 41 -37 10 -48 21 -100 100 -32 49 -64 107 -70
127 -7 21 -28 66 -47 101 -45 81 -64 170 -68 317 -4 155 -25 206 -109 261
l-29 18 27 -41z"/>
<path d="M3728 3968 c-10 -29 -16 -72 -15 -115 2 -37 -2 -90 -8 -118 -13 -61
-12 -107 4 -202 14 -78 9 -106 -31 -188 -45 -91 -89 -117 -217 -130 -36 -4
-97 -18 -138 -31 -40 -13 -98 -28 -128 -32 l-56 -9 6 26 c13 62 14 75 4 92
-15 28 -29 23 -23 -9 8 -38 -28 -84 -61 -78 -22 4 -105 -45 -105 -62 0 -4 -8
-12 -19 -19 -16 -10 -18 -8 -15 18 5 44 40 105 86 149 47 46 42 52 -12 13 -71
-52 -120 -158 -96 -209 18 -38 35 -37 73 5 49 55 82 67 125 47 18 -9 44 -17
58 -18 34 -2 133 28 194 59 44 22 61 25 143 24 130 -2 158 14 214 124 39 77
41 86 35 141 -16 151 -18 223 -6 258 12 37 30 40 30 6 0 -32 23 -71 49 -84 28
-13 35 -14 68 -3 32 12 35 33 8 66 -31 36 -31 53 0 99 27 39 32 81 13 100 -23
23 -38 13 -38 -24 0 -20 -10 -52 -21 -71 -26 -42 -27 -88 -3 -114 14 -16 15
-19 2 -19 -23 0 -51 36 -50 67 0 15 -9 44 -21 63 -17 27 -23 57 -27 130 l-5
95 -17 -47z"/>
<path d="M3350 3968 c-11 -18 -20 -45 -20 -60 0 -24 4 -28 29 -28 15 0 40 -9
54 -20 30 -24 37 -25 37 -6 0 8 -16 28 -36 44 -35 29 -36 32 -25 63 14 40 14
39 -4 39 -8 0 -24 -15 -35 -32z"/>
<path d="M3578 3943 c-31 -34 -58 -85 -58 -112 0 -23 18 -37 30 -25 8 8 61
164 56 164 -1 0 -14 -12 -28 -27z"/>
<path d="M5639 3850 c-1 -47 -1 -88 0 -92 0 -3 -13 -11 -29 -17 -31 -10 -80
-56 -80 -74 0 -6 11 0 24 12 21 20 31 22 70 17 42 -7 47 -5 55 17 16 40 -2
166 -29 207 -7 11 -10 -10 -11 -70z"/>
<path d="M3268 3828 c-21 -25 -24 -77 -5 -82 16 -4 68 -22 90 -31 29 -12 19
13 -18 46 -28 25 -33 34 -25 49 6 10 10 23 10 29 0 19 -34 12 -52 -11z"/>
<path d="M3475 3738 c-28 -25 -70 -124 -56 -133 20 -12 37 8 51 58 13 44 19
52 42 55 18 2 37 -7 62 -28 l36 -32 0 25 c0 31 -51 77 -85 77 -13 0 -35 -10
-50 -22z"/>
<path d="M3219 3714 c-26 -13 -59 -68 -59 -98 0 -8 10 -21 23 -27 12 -6 34
-23 50 -37 43 -40 54 -15 17 36 l-30 42 19 38 c24 48 16 66 -20 46z"/>
<path d="M5386 3679 c-3 -13 -14 -60 -25 -103 -19 -83 -18 -111 5 -120 24 -9
34 29 35 134 1 100 -5 135 -15 89z"/>
<path d="M5686 3614 c4 -54 -1 -61 -39 -55 -11 2 -67 -28 -68 -37 0 -4 -2 -15
-4 -24 -3 -15 1 -14 25 4 24 18 35 19 67 11 60 -14 73 -8 73 39 0 44 -24 104
-45 112 -11 4 -13 -7 -9 -50z"/>
<path d="M3061 3585 c-42 -14 -84 -65 -61 -73 8 -3 30 -20 49 -39 49 -49 68
-40 36 17 -20 35 -19 37 16 55 18 10 29 23 27 32 -4 21 -24 23 -67 8z"/>
<path d="M5494 3563 c3 -10 8 -36 12 -58 4 -22 9 -49 11 -60 9 -36 16 -284 9
-317 -6 -33 -6 -33 -72 -36 -97 -4 -141 -31 -124 -77 11 -31 3 -42 -56 -76
-60 -34 -62 -53 -6 -44 58 9 86 35 90 84 4 47 24 61 90 61 57 0 62 -8 61 -81
-2 -70 10 -100 48 -120 52 -28 135 -4 120 34 -3 8 -25 18 -49 22 -88 13 -98
25 -74 91 23 65 37 314 21 365 -3 9 -7 26 -10 36 -6 30 -66 193 -72 193 -2 0
-2 -8 1 -17z"/>
<path d="M3327 3515 c-36 -40 -55 -54 -84 -59 -62 -12 -122 -46 -148 -84 -29
-42 -31 -58 -10 -66 9 -3 30 9 52 30 41 38 98 70 123 69 41 -2 99 -19 132 -38
21 -11 40 -18 42 -16 13 12 -24 56 -60 74 l-42 20 24 34 c13 19 28 38 35 41
16 10 90 -8 111 -27 23 -21 33 -11 16 16 -15 25 -59 46 -109 54 -34 5 -40 2
-82 -48z"/>
<path d="M2826 3544 c-50 -18 -126 -80 -126 -104 0 -11 10 -20 25 -24 42 -11
30 -31 -48 -85 -46 -31 -46 -31 -82 -31 -13 0 -40 -14 -60 -31 -27 -24 -35
-27 -35 -15 0 42 60 113 130 155 40 24 26 28 -26 6 -49 -20 -84 -50 -116 -97
-29 -43 -35 -77 -18 -109 14 -25 22 -24 59 7 33 28 83 46 98 35 6 -3 15 -16
22 -28 30 -58 135 -72 219 -29 29 14 52 30 52 35 0 16 -13 19 -39 10 -50 -20
-112 -21 -157 -4 -24 9 -44 22 -44 29 0 8 23 36 50 64 50 51 62 86 39 109 -21
21 62 65 126 68 65 3 71 6 48 28 -26 22 -72 26 -117 11z"/>
<path d="M5744 3406 l7 -54 -40 5 c-28 4 -48 1 -66 -11 -35 -23 -31 -35 8 -27
17 4 43 4 57 0 44 -12 88 -10 93 5 11 29 -24 121 -51 131 -12 4 -13 -3 -8 -49z"/>
<path d="M5338 3426 c-23 -23 -53 -105 -42 -116 5 -5 31 -10 57 -11 37 -2 56
-9 78 -30 34 -32 37 -26 9 18 -10 18 -34 40 -52 49 -43 22 -41 19 -28 43 12
24 39 26 93 7 46 -17 48 -4 2 24 -47 29 -97 36 -117 16z"/>
<path d="M5235 3261 c-27 -16 -64 -32 -82 -34 -38 -6 -53 -14 -73 -41 -34 -45
-51 -128 -30 -141 5 -3 24 10 42 30 65 69 94 34 89 -108 -1 -25 -3 -27 -22
-16 -28 15 -77 4 -106 -23 -27 -25 -28 -18 -9 45 11 38 11 47 1 47 -23 0 -40
-31 -47 -89 -3 -31 5 -63 18 -68 9 -3 34 5 56 17 23 13 57 23 76 24 50 1 73
36 74 112 1 95 -31 142 -88 131 -20 -4 -22 -2 -13 16 9 16 18 18 50 14 49 -6
84 -29 108 -68 19 -31 33 -28 26 7 -2 10 -4 24 -4 30 -1 5 -10 20 -21 32 -17
18 -19 26 -10 42 21 39 79 16 117 -46 11 -18 12 -17 12 9 1 35 -23 83 -48 97
-32 16 -63 11 -116 -19z"/>
<path d="M5807 3283 c-4 -3 -7 -22 -7 -40 l0 -34 -26 20 c-15 12 -38 21 -53
21 -38 0 -102 -61 -116 -110 -6 -21 0 -18 42 23 27 26 53 47 59 47 16 0 154
-150 166 -179 6 -15 11 -53 12 -86 1 -53 3 -60 21 -60 15 0 21 8 23 34 4 43
-22 141 -54 200 -13 24 -21 48 -18 53 4 5 1 29 -6 54 -13 44 -31 69 -43 57z"/>
<path d="M5691 3103 c-18 -9 -39 -30 -48 -47 -21 -40 -21 -113 0 -133 14 -15
16 -12 14 28 -3 113 94 168 148 85 19 -29 30 -86 17 -86 -5 0 -14 15 -20 33
l-10 32 -2 -30 c-1 -16 -3 -43 -5 -60 -1 -16 -3 -48 -4 -70 l-1 -40 -20 33
c-18 30 -39 40 -52 26 -4 -3 5 -22 18 -41 13 -20 24 -42 24 -49 0 -20 40 -28
56 -12 8 8 23 38 34 68 16 44 19 69 14 125 -7 79 -26 119 -63 135 -45 18 -67
19 -100 3z"/>
<path d="M5937 2211 c-6 -2 -15 -10 -20 -17 -4 -7 -41 -56 -82 -108 -41 -52
-75 -99 -75 -105 0 -7 28 -11 74 -11 72 0 76 1 133 45 86 64 217 178 217 190
1 9 -220 14 -247 6z"/>
<path d="M4628 2205 c0 0 -2 -260 -3 -577 l-2 -578 114 0 113 0 -2 577 -3 577
-107 1 c-60 1 -109 1 -110 0z"/>
<path d="M5087 2196 c-2 -10 -1 -1100 2 -1133 1 -10 30 -13 111 -13 l110 0 1
63 c3 346 0 1079 -5 1084 -12 12 -215 10 -219 -1z"/>
<path d="M6473 2201 c-6 -5 -10 -1077 -4 -1138 1 -10 30 -13 111 -13 107 0
110 1 111 23 0 12 1 70 1 128 l0 105 45 37 c25 20 49 37 52 37 3 0 58 -74 121
-165 l115 -164 132 -1 133 0 -174 234 -174 233 22 25 c36 42 178 198 238 262
32 34 58 64 58 69 0 4 -55 7 -123 7 l-122 0 -86 -92 c-48 -51 -111 -122 -140
-157 -30 -35 -67 -78 -82 -95 l-28 -31 6 52 c9 73 9 632 1 640 -8 9 -202 12
-213 4z"/>
<path d="M2760 2133 c-13 -3 -15 -70 -14 -536 1 -292 2 -536 3 -540 0 -4 52
-6 114 -5 l112 3 1 183 c0 100 4 185 8 189 4 4 44 8 90 9 286 6 430 136 420
379 -7 156 -78 250 -226 297 -54 17 -93 20 -278 22 -118 1 -222 0 -230 -1z
m433 -210 c44 -26 68 -72 69 -132 0 -103 -69 -160 -202 -165 -40 -2 -73 1 -77
7 -8 13 -8 292 0 305 11 17 174 5 210 -15z"/>
<path d="M3980 1893 c-158 -19 -266 -100 -321 -242 -19 -47 -22 -76 -23 -181
0 -106 3 -134 22 -181 66 -167 188 -250 367 -252 247 -2 399 148 409 405 10
268 -140 443 -389 452 -22 1 -51 0 -65 -1z m141 -206 c56 -37 80 -104 81 -222
0 -117 -25 -185 -81 -222 -62 -42 -178 -24 -216 33 -56 86 -56 292 -1 377 39
58 154 77 217 34z"/>
<path d="M5805 1893 c-74 -12 -137 -29 -183 -49 l-53 -23 37 -73 c20 -40 37
-74 38 -75 1 -1 34 9 74 23 82 28 164 38 211 24 32 -9 70 -42 72 -64 7 -51 7
-86 1 -87 -4 -1 -40 -2 -79 -4 -298 -11 -413 -77 -427 -247 -10 -117 38 -211
129 -257 40 -20 64 -24 135 -24 103 0 163 23 227 85 l42 41 21 -47 c11 -26 20
-52 20 -57 0 -6 35 -9 82 -7 l83 3 -1 306 c-1 221 -5 316 -14 345 -40 122
-142 183 -310 188 -47 1 -94 1 -105 -1z m202 -530 c-10 -99 -54 -146 -150
-159 -53 -8 -113 17 -123 49 -11 35 -6 85 11 111 23 35 73 55 157 64 111 12
112 11 105 -65z"/>
</g>
</svg>
